<svg xmlns="http://www.w3.org/2000/svg" viewBox="0 0 24 24" role="img" aria-label="DBB footprint favicon">
  <path d="M7.95965 7.25709c1.39691-1.0474 3.35205-1.51121 5.24845-1.11865 3.7626.77887 5.7251 3.79056 5.7908 7.53976.0534 3.0466-1.8808 6.7992-4.8226 8.0127-1.7602.7261-4.0466-.0161-4.76288-1.8732-.2673-.693-.21476-1.366051.10258-3.4445.06743-.648975-.30399-1.052869-.77271-1.38773l-.24089-.162492-.55502-.350878-.26673-.182457c-.63045-.450918-1.29715-1.092993-1.57386-2.238543-.48443-2.0056.4093-3.73037 1.82786-4.79401zM5 3.5c1.10457 0 2 .89543 2 2s-.89543 2-2 2-2-.89543-2-2 .89543-2 2-2zm13.5 1c.5523 0 1 .44772 1 1s-.4477 1-1 1-1-.44772-1-1 .4477-1 1-1zM9.5 2C10.3284 2 11 2.67157 11 3.5S10.3284 5 9.5 5 8 4.32843 8 3.5 8.67157 2 9.5 2zm5 0C15.3284 2 16 2.67157 16 3.5S15.3284 5 14.5 5 13 4.32843 13 3.5 13.6716 2 14.5 2z" />
  <style>
    path {
      fill: #1f1f1f;
    }

    @media (prefers-color-scheme: dark) {
      path {
        fill: #f5f5f5;
      }
    }
  </style>
</svg>
